<svg xmlns="http://www.w3.org/2000/svg" viewBox="0 0 64 64"><linearGradient id="fQJ9M7M3aYGZ5p6m7O_m4a" x1="233.086" x2="233.086" y1="50.86" y2="57.135" gradientTransform="rotate(-25.481 53.352 433.283)" gradientUnits="userSpaceOnUse"><stop offset="0" stop-color="#6dc7ff"></stop><stop offset="1" stop-color="#e6abff"></stop></linearGradient><path fill="url(#fQJ9M7M3aYGZ5p6m7O_m4a)" d="M50.272,11.999c0.252,1.033,0.015,2.109-0.601,2.94c-0.063,0.086-0.078,0.197-0.032,0.293 l0,0c1.069,2.243,4.284,2.203,5.289-0.069c0.338-0.764,0.591-1.55,0.675-2.302c0.078-0.698-1.321-1.026-1.603-1.617 C54,11.245,50.216,11.77,50.272,11.999z"></path><linearGradient id="fQJ9M7M3aYGZ5p6m7O_m4b" x1="32" x2="32" y1="30.791" y2="35.069" gradientUnits="userSpaceOnUse"><stop offset="0" stop-color="#6dc7ff"></stop><stop offset="1" stop-color="#e6abff"></stop></linearGradient><circle cx="32" cy="33" r="2" fill="url(#fQJ9M7M3aYGZ5p6m7O_m4b)"></circle><rect width=".208" height="2" x="29" y="23" fill="#0000fd"></rect><linearGradient id="fQJ9M7M3aYGZ5p6m7O_m4c" x1="34" x2="34" y1="7.232" y2="60.935" gradientUnits="userSpaceOnUse"><stop offset="0" stop-color="#1a6dff"></stop><stop offset="1" stop-color="#c822ff"></stop></linearGradient><path fill="url(#fQJ9M7M3aYGZ5p6m7O_m4c)" d="M56,13.5c0-1.93-1.57-3.5-3.5-3.5S49,11.57,49,13.5c0,0.827-0.673,1.5-1.5,1.5h-3.114	c-0.009-0.038-0.005-0.077-0.019-0.114c-0.41-1.08-0.869-1.995-1.367-2.727V9.003c0-1.094-0.567-2.068-1.519-2.608	c-0.95-0.539-2.078-0.529-3.019,0.032l-3.606,2.151c-1.932-0.449-3.781-0.449-5.713,0l-3.607-2.151	c-0.938-0.562-2.067-0.571-3.018-0.032C21.567,6.935,21,7.909,21,9.003v4.153c-1.803,2.597-3,6.793-3,10.584	c0,0.342,0.021,0.676,0.043,1.011l0.007,0.108c0.018,0.273,0.146,0.527,0.356,0.703c0.489,0.409,1.013,0.778,1.548,1.132	C16.307,29.995,14,34.75,14,40v12.171c-1.164,0.413-2,1.525-2,2.829v2c0,0.553,0.447,1,1,1h5.022c2.811,0,5.215-1.913,5.847-4.651	l0.531-2.304C25.222,47.486,28.348,45,32,45s6.778,2.486,7.6,6.045l0.531,2.304C40.763,56.087,43.167,58,45.978,58H51	c0.553,0,1-0.447,1-1v-2c0-1.304-0.836-2.416-2-2.829V40.445c0-4.95-2.044-9.796-5.608-13.294c-0.141-0.138-0.29-0.265-0.434-0.398	c0.567-0.371,1.12-0.76,1.636-1.191c0.21-0.176,0.339-0.43,0.356-0.703l0.007-0.108C45.979,24.416,46,24.082,46,23.74	c0-0.546-0.034-1.135-0.084-1.74H47.5C52.187,22,56,18.187,56,13.5z M20.019,24.296C20.008,24.111,20,23.927,20,23.74	c0-3.476,1.152-7.45,2.802-9.664C22.931,13.903,23,13.693,23,13.479V9.003c0-0.525,0.354-0.783,0.506-0.869	c0.152-0.087,0.555-0.258,1.006,0.01l3.961,2.363c0.231,0.139,0.511,0.178,0.769,0.108c1.877-0.498,3.641-0.498,5.518,0	c0.259,0.069,0.537,0.03,0.769-0.108l3.96-2.363c0.453-0.268,0.854-0.097,1.007-0.01C40.646,8.22,41,8.478,41,9.003v3.476	c0,0.216,0.069,0.425,0.198,0.598c0.372,0.499,0.725,1.148,1.056,1.924h-7.211C31.159,15,28,18.159,28,22.043v0.43	c-2.341,0.54-4.505,1.551-6.406,2.91C21.049,25.045,20.517,24.69,20.019,24.296z M48,40.445V41h-5v2h5v2h-3v2h3v2h-2v2h2v2	c0,0.553,0.447,1,1,1c0.552,0,1,0.448,1,1v1h-4.022c-1.874,0-3.477-1.275-3.897-3.101l-0.531-2.304C40.516,46.123,36.59,43,32,43	s-8.516,3.123-9.549,7.596l-0.531,2.304C21.499,54.725,19.896,56,18.022,56H14v-1c0-0.552,0.448-1,1-1c0.553,0,1-0.447,1-1v-2h2v-2	h-2v-2h3v-2h-3v-2h5v-2h-5v-1c0-7.384,5.126-13.671,12-15.468V29h2v-4.87V22h0.004c0.024-2.76,2.273-5,5.039-5H47.5	c1.93,0,3.5-1.57,3.5-3.5c0-0.827,0.673-1.5,1.5-1.5s1.5,0.673,1.5,1.5c0,3.584-2.916,6.5-6.5,6.5H36.426	c-1.241,0-2.255,0.939-2.397,2.142C34.019,22.141,34,24.146,34,24.146V29h2v-4.446c2.589,0.695,4.982,2.053,6.99,4.025	C46.174,31.703,48,36.028,48,40.445z M44,23.74c0,0.187-0.008,0.371-0.019,0.556c-0.518,0.41-1.072,0.779-1.64,1.129	c-1.926-1.397-4.08-2.381-6.341-2.919v-0.08C36,22.191,36.191,22,36.426,22h7.484C43.964,22.611,44,23.2,44,23.74z"></path></svg>