<svg xmlns="http://www.w3.org/2000/svg" viewBox="0 0 64 64"><linearGradient id="a9OTwMEZAyaHAnZfiNYRXa" x1="32" x2="32" y1="6.064" y2="57.552" gradientUnits="userSpaceOnUse"><stop offset="0" stop-color="#1a6dff"></stop><stop offset="1" stop-color="#c822ff"></stop></linearGradient><path fill="url(#a9OTwMEZAyaHAnZfiNYRXa)" d="M50,39h1c3.859,0,7-3.141,7-7v-2h-2v2c0,2.757-2.243,5-5,5h-1v-2.764 c0-2.349-1.564-4.318-3.699-4.979c1.999-1.465,3.379-3.726,3.649-6.319C53.914,22.466,57,19.089,57,15c0-4.411-3.589-8-8-8 c-0.553,0-1,0.447-1,1v6h-6c-0.553,0-1,0.447-1,1c0,4.048,3.025,7.396,6.932,7.92C47.479,26.345,44.547,29,41,29h-3 c0-0.13-0.01-0.26-0.04-0.391c-0.021-0.13-0.061-0.25-0.11-0.38c-0.05-0.12-0.12-0.229-0.189-0.34c-0.07-0.109-0.15-0.21-0.25-0.3 c-0.091-0.1-0.19-0.18-0.301-0.25c-0.109-0.08-0.22-0.14-0.35-0.19c-0.12-0.05-0.24-0.09-0.37-0.109c-0.26-0.05-0.52-0.05-0.78,0 c-0.13,0.02-0.26,0.06-0.38,0.109c-0.12,0.051-0.229,0.11-0.34,0.19c-0.109,0.07-0.21,0.15-0.3,0.25c-0.1,0.09-0.18,0.19-0.25,0.3 c-0.08,0.11-0.14,0.22-0.19,0.34c-0.05,0.13-0.09,0.25-0.109,0.38C34.01,28.74,34,28.87,34,29h-4c0-0.521-0.21-1.04-0.59-1.41 c-0.73-0.75-2.08-0.75-2.82,0c-0.1,0.09-0.18,0.19-0.25,0.3c-0.08,0.11-0.14,0.22-0.19,0.34c-0.05,0.13-0.09,0.25-0.109,0.38 C26.01,28.74,26,28.87,26,29h-3c-3.547,0-6.479-2.655-6.932-6.08C19.975,22.396,23,19.048,23,15c0-0.553-0.447-1-1-1h-6V8 c0-0.553-0.447-1-1-1c-4.411,0-8,3.589-8,8c0,4.089,3.086,7.466,7.049,7.938c0.27,2.593,1.65,4.854,3.649,6.319 C15.564,29.918,14,31.887,14,34.236V37h-1c-2.757,0-5-2.243-5-5v-2H6v2c0,3.859,3.141,7,7,7h1v0.055 c0,1.005,0.104,1.985,0.263,2.945H6v2h8.709c0.301,1.047,0.698,2.052,1.176,3.012C13.182,47.075,11,49.283,11,52v3h2v-3 c0-1.654,1.346-3,3-3h1.019c3.221,4.818,8.707,8,14.926,8h0.109c6.232,0,11.727-3.196,14.945-8.032V49h1c1.654,0,3,1.346,3,3v3h2 v-3c0-2.717-2.182-4.925-4.884-4.988c0.478-0.96,0.875-1.964,1.176-3.012H58v-2h-8.263C49.896,41.039,50,40.06,50,39.055V39z M43.083,16H49c0.553,0,1-0.447,1-1V9.083c2.834,0.478,5,2.949,5,5.917c0,3.309-2.691,6-6,6C46.032,21,43.561,18.834,43.083,16z M9,15c0-2.968,2.166-5.439,5-5.917V15c0,0.553,0.447,1,1,1h5.917c-0.478,2.834-2.949,5-5.917,5C11.691,21,9,18.309,9,15z M32.055,55h-0.109C23.153,55,16,47.847,16,39.055v-4.818C16,32.452,17.452,31,19.236,31H23h18h3.764 C46.548,31,48,32.452,48,34.236v4.818C48,47.847,40.847,55,32.055,55z"></path><linearGradient id="a9OTwMEZAyaHAnZfiNYRXb" x1="24.973" x2="24.973" y1="6.064" y2="57.552" gradientUnits="userSpaceOnUse"><stop offset="0" stop-color="#1a6dff"></stop><stop offset="1" stop-color="#c822ff"></stop></linearGradient><path fill="url(#a9OTwMEZAyaHAnZfiNYRXb)" d="M20,39.055h-2C18,46.744,24.256,53,31.945,53v-2C25.358,51,20,45.642,20,39.055z"></path><linearGradient id="a9OTwMEZAyaHAnZfiNYRXc" x1="26.973" x2="26.973" y1="6.064" y2="57.552" gradientUnits="userSpaceOnUse"><stop offset="0" stop-color="#1a6dff"></stop><stop offset="1" stop-color="#c822ff"></stop></linearGradient><path fill="url(#a9OTwMEZAyaHAnZfiNYRXc)" d="M24,39.055h-2C22,44.538,26.462,49,31.945,49v-2C27.564,47,24,43.436,24,39.055z"></path><g><linearGradient id="a9OTwMEZAyaHAnZfiNYRXd" x1="43.5" x2="43.5" y1="33.404" y2="36.362" gradientUnits="userSpaceOnUse"><stop offset="0" stop-color="#6dc7ff"></stop><stop offset="1" stop-color="#e6abff"></stop></linearGradient><path fill="url(#a9OTwMEZAyaHAnZfiNYRXd)" d="M46,38v-3.764C46,33.555,45.445,33,44.764,33H41L46,38z"></path></g></svg>