<svg xmlns="http://www.w3.org/2000/svg" viewBox="0 0 64 64"><linearGradient id="UnN6PEeN7y4363lalvTEUa" x1="31" x2="31" y1="21.5" y2="28.679" gradientUnits="userSpaceOnUse" spreadMethod="reflect"><stop offset="0" stop-color="#6dc7ff"></stop><stop offset="1" stop-color="#e6abff"></stop></linearGradient><path fill="url(#UnN6PEeN7y4363lalvTEUa)" d="M31 22A3 3 0 1 0 31 28A3 3 0 1 0 31 22Z"></path><linearGradient id="UnN6PEeN7y4363lalvTEUb" x1="32" x2="32" y1="7.5" y2="56.34" gradientUnits="userSpaceOnUse" spreadMethod="reflect"><stop offset="0" stop-color="#1a6dff"></stop><stop offset="1" stop-color="#c822ff"></stop></linearGradient><path fill="url(#UnN6PEeN7y4363lalvTEUb)" d="M53,26H41c-0.552,0-1-0.448-1-1v-3c0-7.168-5.832-13-13-13h-1h-1h-6C11.832,9,6,14.832,6,22v2 v5v26h27v-5v-1c0-1.654,1.346-3,3-3h13c1.654,0,3-1.346,3-3v-1.525c3.49-1.24,6-4.565,6-8.475v-2C58,28.243,55.757,26,53,26z M56,31 v1h-1c-1.654,0-3-1.346-3-3v-1h1C54.654,28,56,29.346,56,31z M8,22c0-6.065,4.935-11,11-11h1.111C18.81,12.271,18,14.042,18,16v13 c0,1.654-1.346,3-3,3h-4c-1.654,0-3-1.346-3-3v-5V22z M31,53h-5.899c0.465-2.279,2.484-4,4.899-4h1v1V53z M50,43 c0,0.552-0.448,1-1,1H36c-1.13,0-2.162,0.391-3,1.025V45c0-1.654,1.346-3,3-3h13c0.338,0,0.671-0.022,1-0.059V43z M49,40H36 c-2.757,0-5,2.243-5,5v2h-1c-3.519,0-6.432,2.614-6.92,6H8v-2h6v-2H8v-2h4v-2H8v-2h2v-2H8v-8.025C8.838,33.609,9.87,34,11,34h4 c2.757,0,5-2.243,5-5V16c0-2.757,2.243-5,5-5h1h1c6.065,0,11,4.935,11,11v3c0,1.654,1.346,3,3,3h9v1c0,2.757,2.243,5,5,5h0.92 C55.432,37.386,52.519,40,49,40z"></path><linearGradient id="UnN6PEeN7y4363lalvTEUc" x1="30" x2="30" y1="7.5" y2="56.34" gradientUnits="userSpaceOnUse" spreadMethod="reflect"><stop offset="0" stop-color="#1a6dff"></stop><stop offset="1" stop-color="#c822ff"></stop></linearGradient><path fill="url(#UnN6PEeN7y4363lalvTEUc)" d="M26 18H34V20H26z"></path><linearGradient id="UnN6PEeN7y4363lalvTEUd" x1="43" x2="43" y1="7.5" y2="56.34" gradientUnits="userSpaceOnUse" spreadMethod="reflect"><stop offset="0" stop-color="#1a6dff"></stop><stop offset="1" stop-color="#c822ff"></stop></linearGradient><path fill="url(#UnN6PEeN7y4363lalvTEUd)" d="M42 35H44V37H42z"></path><linearGradient id="UnN6PEeN7y4363lalvTEUe" x1="46" x2="46" y1="7.5" y2="56.34" gradientUnits="userSpaceOnUse" spreadMethod="reflect"><stop offset="0" stop-color="#1a6dff"></stop><stop offset="1" stop-color="#c822ff"></stop></linearGradient><path fill="url(#UnN6PEeN7y4363lalvTEUe)" d="M45 32H47V34H45z"></path><linearGradient id="UnN6PEeN7y4363lalvTEUf" x1="49" x2="49" y1="7.5" y2="56.34" gradientUnits="userSpaceOnUse" spreadMethod="reflect"><stop offset="0" stop-color="#1a6dff"></stop><stop offset="1" stop-color="#c822ff"></stop></linearGradient><path fill="url(#UnN6PEeN7y4363lalvTEUf)" d="M48 35H50V37H48z"></path></svg>