<svg xmlns="http://www.w3.org/2000/svg" viewBox="0 0 64 64"><linearGradient id="HHk1QPX1Ly7gb8iHzoSSga" x1="11.45" x2="11.45" y1="11.851" y2="21.002" gradientTransform="translate(.066 -.106)" gradientUnits="userSpaceOnUse"><stop offset="0" stop-color="#6dc7ff"></stop><stop offset="1" stop-color="#e6abff"></stop></linearGradient><path fill="url(#HHk1QPX1Ly7gb8iHzoSSga)" d="M10.307,10.779l2.913,2.932c2.318,2.333,2.305,6.103-0.028,8.42l-3.913-2.92l-1.302-5.653 L10.307,10.779z"></path><linearGradient id="HHk1QPX1Ly7gb8iHzoSSgb" x1="52.55" x2="52.55" y1="11.936" y2="20.255" gradientTransform="translate(.066 -.106)" gradientUnits="userSpaceOnUse"><stop offset="0" stop-color="#6dc7ff"></stop><stop offset="1" stop-color="#e6abff"></stop></linearGradient><path fill="url(#HHk1QPX1Ly7gb8iHzoSSgb)" d="M53.753,10.923l-2.932,2.913c-2.333,2.318-2.345,6.087-0.028,8.42l3.933-2.894l1.34-5.645 L53.753,10.923z"></path><linearGradient id="HHk1QPX1Ly7gb8iHzoSSgc" x1="21.011" x2="21.011" y1="23.255" y2="28.118" gradientTransform="translate(.066 -.106)" gradientUnits="userSpaceOnUse"><stop offset="0" stop-color="#6dc7ff"></stop><stop offset="1" stop-color="#e6abff"></stop></linearGradient><circle cx="20.991" cy="25.939" r="3" fill="url(#HHk1QPX1Ly7gb8iHzoSSgc)"></circle><g><linearGradient id="HHk1QPX1Ly7gb8iHzoSSgd" x1="43.011" x2="43.011" y1="23.255" y2="28.118" gradientTransform="translate(.066 -.106)" gradientUnits="userSpaceOnUse"><stop offset="0" stop-color="#6dc7ff"></stop><stop offset="1" stop-color="#e6abff"></stop></linearGradient><circle cx="42.991" cy="26.012" r="3" fill="url(#HHk1QPX1Ly7gb8iHzoSSgd)"></circle></g><linearGradient id="HHk1QPX1Ly7gb8iHzoSSge" x1="32" x2="32" y1="7.426" y2="53.99" gradientUnits="userSpaceOnUse"><stop offset="0" stop-color="#1a6dff"></stop><stop offset="1" stop-color="#c822ff"></stop></linearGradient><path fill="url(#HHk1QPX1Ly7gb8iHzoSSge)" d="M57.043,14.953c-0.029-1.919-0.815-3.7-2.214-5.018c-2.738-2.582-7.212-2.434-9.974,0.328 l-0.77,0.77c-2.486-1.349-5.262-2.058-8.075-2.058h-8c-2.819,0-5.6,0.712-8.089,2.065l-0.777-0.777 c-2.761-2.762-7.235-2.908-9.974-0.328c-1.399,1.317-2.186,3.101-2.214,5.019c-0.029,1.919,0.703,3.724,2.06,5.08l2.386,2.386 c-0.26,1.201-0.392,2.396-0.392,3.556v10c0,4.562,2.873,8.671,7.082,10.28c0.463,3.385,3.049,6.115,6.301,6.627 c0.761,1.835,2.572,3.093,4.617,3.093h6c2.037,0,3.844-1.248,4.609-3.091c3.258-0.509,5.85-3.245,6.31-6.635 c4.258-1.618,7.081-5.668,7.081-10.273v-10c0-1.167-0.133-2.366-0.395-3.573l2.368-2.368 C56.341,18.677,57.073,16.873,57.043,14.953z M35.011,53.976h-6c-0.92,0-1.759-0.428-2.316-1.104 c1.517-0.243,2.924-0.927,4.049-2.024c0.501-0.488,0.925-1.034,1.266-1.622c0.341,0.588,0.765,1.134,1.266,1.622 c1.124,1.096,2.527,1.787,4.044,2.027C36.763,53.551,35.928,53.976,35.011,53.976z M44.011,45.175c0,3.122-2.402,5.724-5.354,5.799 c-1.494,0.055-2.913-0.515-3.983-1.559c-1.072-1.044-1.662-2.443-1.662-3.939h-2c0,1.496-0.59,2.896-1.662,3.939 c-1.07,1.044-2.482,1.613-3.983,1.559c-2.953-0.075-5.354-2.677-5.354-5.799v-0.668c0-3.05,2.481-5.531,5.531-5.531h3.04 l2.719,2.736c0.188,0.188,0.443,0.295,0.709,0.295s0.521-0.106,0.709-0.295l2.719-2.736h3.04c3.05,0,5.531,2.481,5.531,5.531 V45.175z M50.408,21.782l0.137,0.549c0.309,1.235,0.465,2.461,0.465,3.645V33H49v2h2.011v0.976c0,0.346-0.026,0.687-0.064,1.024H47 v2h3.488c-0.775,2.188-2.374,4.009-4.5,5.05c-0.238-3.939-3.509-7.074-7.508-7.074h-1.053l0.293-0.295 c0.22-0.221,0.317-0.527,0.28-0.827V23.976c0-1.654,1.346-3,3-3v-2c-2.757,0-5,2.243-5,5v11h-7.989v-11c0-2.757-2.243-5-5-5v2 c1.654,0,3,1.346,3,3v11.875h0.012c-0.038,0.301,0.058,0.608,0.279,0.83l0.293,0.295h-1.053c-3.997,0-7.268,3.134-7.508,7.072 c-2.098-1.04-3.703-2.87-4.488-5.048H17v-2h-3.923c-0.039-0.338-0.066-0.679-0.066-1.024V35H15v-2h-1.989v-7.024 c0-1.177,0.155-2.397,0.461-3.629l0.137-0.549L10.43,18.62c-0.971-0.972-1.495-2.263-1.474-3.636s0.584-2.649,1.586-3.594 c1.96-1.845,5.184-1.716,7.188,0.287l1.872,1.873l0.671-0.406c2.347-1.419,5.022-2.169,7.738-2.169h8 c2.71,0,5.381,0.747,7.725,2.161l0.67,0.404l1.864-1.863c2.003-2.006,5.229-2.135,7.188-0.286c1.002,0.943,1.565,2.219,1.586,3.592 c0.021,1.374-0.503,2.665-1.474,3.637L50.408,21.782z"></path></svg>