<svg xmlns="http://www.w3.org/2000/svg" viewBox="0 0 64 64"><linearGradient id="K1Lqear_c1WvFwblOKKVza" x1="32" x2="32" y1="9.894" y2="55.616" gradientUnits="userSpaceOnUse"><stop offset="0" stop-color="#1a6dff"></stop><stop offset="1" stop-color="#c822ff"></stop></linearGradient><path fill="url(#K1Lqear_c1WvFwblOKKVza)" d="M58,6c-3.521,0-6.442,2.612-6.929,6H12.929C12.442,8.612,9.521,6,6,6C5.448,6,5,6.447,5,7v6 c0,3.859,3.14,7,7,7h2.93l0.268,2H9c-0.552,0-1,0.447-1,1c0,3.859,3.14,7,7,7h1.271l2.098,15.643 c0.326,2.426,1.667,4.55,3.686,5.905c0.197,1.058,0.951,1.913,1.945,2.268v0.078C24,56.158,25.842,58,28.106,58h7.787 C38.158,58,40,56.158,40,53.894v-0.078c0.993-0.354,1.747-1.208,1.944-2.266c2.019-1.356,3.361-3.487,3.686-5.907L47.729,30H49 c3.86,0,7-3.141,7-7c0-0.553-0.448-1-1-1h-6.198l0.268-2H52c3.86,0,7-3.141,7-7V7C59,6.447,58.552,6,58,6z M7,13V8.101 c2.279,0.465,4,2.484,4,4.899c0,0.553,0.448,1,1,1h4.971c-0.13,0.127-0.26,0.253-0.381,0.391c-0.899,1.027-1.459,2.285-1.65,3.609 H12C9.243,18,7,15.757,7,13z M15,28c-2.415,0-4.435-1.721-4.899-4h5.366l0.536,4H15z M35.894,56h-7.787 c-1.125,0-2.039-0.889-2.096-2h11.979C37.932,55.111,37.019,56,35.894,56z M40,51c0,0.552-0.449,1-1,1H25c-0.551,0-1-0.448-1-1 v-2.298c0-0.63,0.107-1.235,0.297-1.802c0.542,1.234,1.772,2.1,3.203,2.1c1.93,0,3.5-1.57,3.5-3.5c0-0.98-0.407-1.864-1.058-2.5 h4.117C33.407,43.636,33,44.52,33,45.5c0,1.93,1.57,3.5,3.5,3.5c1.432,0,2.662-0.866,3.203-2.1C39.893,47.467,40,48.072,40,48.702 V51z M29,45.5c0,0.827-0.673,1.5-1.5,1.5S26,46.327,26,45.5s0.673-1.5,1.5-1.5S29,44.673,29,45.5z M38,45.5 c0,0.827-0.673,1.5-1.5,1.5S35,46.327,35,45.5s0.673-1.5,1.5-1.5S38,44.673,38,45.5z M43.648,45.377 c-0.179,1.331-0.764,2.544-1.648,3.509v-0.184C42,44.455,38.545,41,34.298,41h-4.596C25.455,41,22,44.455,22,48.702v0.185 c-0.885-0.964-1.47-2.177-1.648-3.51l-3.449-25.712c-0.192-1.43,0.243-2.872,1.193-3.957C19.045,14.622,20.417,14,21.858,14H23v2h2 v-2h2v5h2v-5h2v7h2v-7h2v5h2v-5h2v2h2v-2h1.141c1.442,0,2.813,0.622,3.763,1.708c0.95,1.085,1.385,2.527,1.193,3.957L43.648,45.377 z M53.899,24c-0.464,2.279-2.485,4-4.899,4h-1.003l0.536-4H53.899z M57,13c0,2.757-2.243,5-5,5h-2.94 c-0.192-1.324-0.751-2.582-1.65-3.609c-0.12-0.138-0.251-0.264-0.381-0.391H52c0.552,0,1-0.447,1-1c0-2.415,1.721-4.435,4-4.899V13 z"></path><linearGradient id="K1Lqear_c1WvFwblOKKVzb" x1="25.011" x2="25.011" y1="24.915" y2="30.601" gradientUnits="userSpaceOnUse"><stop offset="0" stop-color="#6dc7ff"></stop><stop offset="1" stop-color="#e6abff"></stop></linearGradient><circle cx="25.011" cy="27.976" r="3" fill="url(#K1Lqear_c1WvFwblOKKVzb)"></circle><linearGradient id="K1Lqear_c1WvFwblOKKVzc" x1="40.011" x2="40.011" y1="24.915" y2="30.601" gradientUnits="userSpaceOnUse"><stop offset="0" stop-color="#6dc7ff"></stop><stop offset="1" stop-color="#e6abff"></stop></linearGradient><circle cx="40.011" cy="27.976" r="3" fill="url(#K1Lqear_c1WvFwblOKKVzc)"></circle></svg>