<svg xmlns="http://www.w3.org/2000/svg" viewBox="0 0 64 64"><linearGradient id="fwlVKCzDP6xnUPoEorMvYa" x1="10.081" x2="14.232" y1="10.09" y2="14.241" gradientUnits="userSpaceOnUse"><stop offset="0" stop-color="#6bc5fd"></stop><stop offset="1" stop-color="#e4a9fd"></stop></linearGradient><path fill="url(#fwlVKCzDP6xnUPoEorMvYa)" d="M17.836,12.523l-1.519-1.519c-1.469-1.469-3.852-1.469-5.321,0	c-1.469,1.469-1.469,3.852,0,5.321l1.35,1.35L17.836,12.523z"></path><linearGradient id="fwlVKCzDP6xnUPoEorMvYb" x1="53.401" x2="49.266" y1="10.38" y2="14.515" gradientUnits="userSpaceOnUse"><stop offset="0" stop-color="#6bc5fd"></stop><stop offset="1" stop-color="#e4a9fd"></stop></linearGradient><path fill="url(#fwlVKCzDP6xnUPoEorMvYb)" d="M52.777,11.005c-1.469-1.469-3.852-1.469-5.321,0l-1.679,1.68l5.656,4.987l1.345-1.345	C54.246,14.857,54.246,12.474,52.777,11.005z"></path><linearGradient id="fwlVKCzDP6xnUPoEorMvYc" x1="32.5" x2="32.5" y1="33.787" y2="39.982" gradientUnits="userSpaceOnUse"><stop offset="0" stop-color="#6bc5fd"></stop><stop offset="1" stop-color="#e4a9fd"></stop></linearGradient><path fill="url(#fwlVKCzDP6xnUPoEorMvYc)" d="M35.29,37.822l-1.916,1.648c-0.511,0.44-1.238,0.44-1.749,0l-1.916-1.648	c-0.449-0.386-0.71-0.97-0.71-1.588v0c0-1.123,0.847-2.034,1.891-2.034h3.218c1.044,0,1.891,0.911,1.891,2.034v0	C36,36.852,35.739,37.436,35.29,37.822z"></path><linearGradient id="fwlVKCzDP6xnUPoEorMvYd" x1="20" x2="20" y1="25.723" y2="30.223" gradientUnits="userSpaceOnUse"><stop offset="0" stop-color="#6bc5fd"></stop><stop offset="1" stop-color="#e4a9fd"></stop></linearGradient><circle cx="20" cy="28" r="2" fill="url(#fwlVKCzDP6xnUPoEorMvYd)"></circle><linearGradient id="fwlVKCzDP6xnUPoEorMvYe" x1="44.075" x2="44.075" y1="25.67" y2="30.247" gradientUnits="userSpaceOnUse"><stop offset="0" stop-color="#6bc5fd"></stop><stop offset="1" stop-color="#e4a9fd"></stop></linearGradient><circle cx="44.075" cy="28" r="2" fill="url(#fwlVKCzDP6xnUPoEorMvYe)"></circle><linearGradient id="fwlVKCzDP6xnUPoEorMvYf" x1="56.5" x2="56.5" y1="46.415" y2="50.117" gradientUnits="userSpaceOnUse"><stop offset="0" stop-color="#6bc5fd"></stop><stop offset="1" stop-color="#e4a9fd"></stop></linearGradient><circle cx="56.5" cy="48.5" r="1.5" fill="url(#fwlVKCzDP6xnUPoEorMvYf)"></circle><linearGradient id="fwlVKCzDP6xnUPoEorMvYg" x1="35" x2="35" y1="5.809" y2="60.226" gradientUnits="userSpaceOnUse"><stop offset="0" stop-color="#1a6dff"></stop><stop offset="1" stop-color="#c822ff"></stop></linearGradient><path fill="url(#fwlVKCzDP6xnUPoEorMvYg)" d="M37.525,47.62c0.4-0.624,0.555-1.375,0.434-2.117C37.727,44.076,36.409,43,34.893,43H32v2 h2.893c0.537,0,1.017,0.362,1.092,0.824c0.053,0.324-0.048,0.567-0.143,0.715c-0.57,0.888-0.57,2.034,0,2.923 c0.094,0.146,0.195,0.39,0.143,0.713C35.91,50.638,35.43,51,34.893,51H34v2h0.893c1.516,0,2.834-1.076,3.067-2.504 c0.12-0.741-0.034-1.492-0.435-2.115C37.375,48.146,37.375,47.854,37.525,47.62z"></path><linearGradient id="fwlVKCzDP6xnUPoEorMvYh" x1="20.84" x2="20.84" y1="5.809" y2="60.226" gradientUnits="userSpaceOnUse"><stop offset="0" stop-color="#1a6dff"></stop><stop offset="1" stop-color="#c822ff"></stop></linearGradient><path fill="url(#fwlVKCzDP6xnUPoEorMvYh)" d="M28.199,21.583c-5.137-3.132-11.861-1.497-14.989,3.637l-0.148,0.242 c-1.992,3.271-0.953,7.552,2.316,9.543c1.103,0.673,2.342,1.018,3.602,1.018c0.549,0,1.103-0.065,1.65-0.198 c1.803-0.438,3.327-1.551,4.292-3.135l4.271-7.009c0.415-0.68,0.54-1.48,0.352-2.255C29.357,22.651,28.879,21.997,28.199,21.583z M27.485,24.64l-4.271,7.009c-0.687,1.128-1.772,1.921-3.056,2.232c-1.283,0.313-2.611,0.104-3.739-0.583 c-2.328-1.419-3.068-4.467-1.65-6.794l0.148-0.242c1.676-2.75,4.614-4.27,7.621-4.27c1.578,0,3.176,0.419,4.62,1.298l0,0.001 c0.224,0.136,0.381,0.352,0.443,0.606C27.663,24.152,27.622,24.416,27.485,24.64z"></path><linearGradient id="fwlVKCzDP6xnUPoEorMvYi" x1="43.237" x2="43.237" y1="5.809" y2="60.226" gradientUnits="userSpaceOnUse"><stop offset="0" stop-color="#1a6dff"></stop><stop offset="1" stop-color="#c822ff"></stop></linearGradient><path fill="url(#fwlVKCzDP6xnUPoEorMvYi)" d="M45.095,36.022c1.26,0,2.499-0.345,3.602-1.018c1.583-0.965,2.697-2.489,3.134-4.291 c0.438-1.803,0.147-3.668-0.818-5.252l-0.147-0.241c-3.13-5.135-9.853-6.767-14.99-3.638l0-0.001 c-0.68,0.415-1.158,1.069-1.346,1.844c-0.188,0.773-0.063,1.574,0.351,2.255l4.271,7.009c0.965,1.584,2.49,2.697,4.292,3.135 C43.992,35.957,44.545,36.022,45.095,36.022z M40.86,31.648l-4.271-7.009c-0.282-0.462-0.135-1.067,0.327-1.349l0-0.001 c1.444-0.879,3.041-1.298,4.62-1.298c3.007,0,5.945,1.52,7.621,4.27l0.147,0.241c0.688,1.128,0.895,2.456,0.583,3.739 s-1.104,2.368-2.232,3.056c-1.127,0.688-2.455,0.895-3.739,0.583S41.547,32.776,40.86,31.648z"></path><linearGradient id="fwlVKCzDP6xnUPoEorMvYj" x1="33.945" x2="33.945" y1="5.809" y2="60.226" gradientUnits="userSpaceOnUse"><stop offset="0" stop-color="#1a6dff"></stop><stop offset="1" stop-color="#c822ff"></stop></linearGradient><path fill="url(#fwlVKCzDP6xnUPoEorMvYj)" d="M58.065,43.224l0.002-10.169c0-4.576-1.19-8.878-3.271-12.62l0.719-0.719 c1.529-1.529,2.372-3.563,2.372-5.726c0-2.162-0.842-4.195-2.372-5.725c-3.156-3.156-8.294-3.156-11.45,0l-1.141,1.141 C39.596,7.867,35.894,7,31.989,7c-3.957,0-7.709,0.891-11.072,2.476l-1.21-1.21c-3.156-3.156-8.294-3.156-11.45,0 c-3.156,3.157-3.156,8.293,0,11.45l0.863,0.863c-2.031,3.707-3.188,7.959-3.188,12.476v10.277C5.933,51.42,12.513,58,20.6,58h22.8 c1.35,0,2.687-0.186,3.977-0.549c2.106,1.58,4.07,2.424,4.247,2.498l0.385,0.161l0.385-0.161C52.787,59.785,62,55.851,62,48.383 C62,45.946,60.337,43.885,58.065,43.224z M45.479,9.681c2.377-2.377,6.245-2.377,8.622,0c1.151,1.151,1.786,2.683,1.786,4.311 c0,1.629-0.634,3.16-1.786,4.312l-0.375,0.375c-2.276-3.425-5.341-6.28-8.933-8.311L45.479,9.681z M9.671,9.681 c1.152-1.151,2.683-1.785,4.311-1.785s3.159,0.634,4.311,1.785l0.767,0.767c-3.577,2.053-6.621,4.928-8.876,8.368l-0.514-0.513 C7.295,15.926,7.295,12.058,9.671,9.681z M20.6,56c-6.984,0-12.667-5.683-12.667-12.667V33.056C7.933,19.791,18.725,9,32.011,9 c13.265,0,24.056,10.791,24.056,24.056v9.971c-1.655,0.132-3.135,0.991-4.058,2.276C51.005,43.905,49.345,43,47.514,43 c-3.03,0-5.496,2.415-5.496,5.383c0,3.096,1.588,5.574,3.47,7.439C44.8,55.935,44.103,56,43.4,56H20.6z M52.008,57.927 c-1.647-0.786-7.99-4.165-7.99-9.544c0-1.865,1.568-3.383,3.496-3.383c1.726,0,3.211,1.248,3.455,2.902l0.125,0.854h1.83 l0.125-0.854C53.293,46.248,54.778,45,56.504,45C58.432,45,60,46.518,60,48.383C60,53.747,53.654,57.139,52.008,57.927z"></path></svg>