<svg xmlns="http://www.w3.org/2000/svg" viewBox="0 0 64 64"><linearGradient id="o5Fh~Zrrc8uPpZcjafh~Wa" x1="33" x2="33" y1="31.812" y2="38.437" gradientUnits="userSpaceOnUse" spreadMethod="reflect"><stop offset="0" stop-color="#6dc7ff"></stop><stop offset="1" stop-color="#e6abff"></stop></linearGradient><path fill="url(#o5Fh~Zrrc8uPpZcjafh~Wa)" d="M33 32A3 3 0 1 0 33 38A3 3 0 1 0 33 32Z"></path><linearGradient id="o5Fh~Zrrc8uPpZcjafh~Wb" x1="32" x2="32" y1="4.75" y2="58.509" gradientUnits="userSpaceOnUse" spreadMethod="reflect"><stop offset="0" stop-color="#1a6dff"></stop><stop offset="1" stop-color="#c822ff"></stop></linearGradient><path fill="url(#o5Fh~Zrrc8uPpZcjafh~Wb)" d="M55.662,35.988l-1.891-0.901l-8.518-3.809l6.662-22.593c0.302-1.022-0.219-2.106-1.211-2.521 c-0.977-0.408-2.12-0.029-2.652,0.883L36.254,27.254l-4.34-1.94c-1.22-8.024-6.321-10.153-6.543-10.242l-0.978-0.391L21.553,23H20 c-1.654,0-3,1.346-3,3c0,0.364,0.075,0.708,0.194,1.031C15.409,27.189,14,28.675,14,30.5c0,0.564,0.147,1.09,0.385,1.562 C12.472,32.361,11,34.004,11,36c0,0.829,0.254,1.6,0.687,2.239C10.128,38.785,9,40.256,9,42c0,0.829,0.254,1.6,0.687,2.239 C8.128,44.785,7,46.256,7,48c0,0.986,0.372,1.877,0.965,2.575C6.794,51.274,6,52.54,6,54c0,2.206,1.794,4,4,4h1h24v-7 c0-0.552,0.448-1,1-1h15h1.546c1.232,0,2.342-0.797,2.76-1.984l2.463-7.01C58.468,39.015,57.529,36.805,55.662,35.988z M47.503,16.578l-0.618,2.096l-2.649-1.125l1.103-1.889L47.503,16.578z M46.356,13.918l1.016-1.74l1.301,0.434l-0.6,2.036 L46.356,13.918z M46.316,20.606l-0.507,1.717l-3.495-1.484l0.904-1.549L46.316,20.606z M45.239,24.255l-0.618,2.096l-4.428-1.88 l1.104-1.89L45.239,24.255z M49.934,8.009c0.049,0.021,0.076,0.066,0.063,0.109l-0.759,2.573l-0.837-0.279l1.377-2.358 C49.808,8.007,49.876,7.985,49.934,8.009z M39.177,26.213l4.875,2.07l-0.64,2.172l-5.322-2.38L39.177,26.213z M20,25h0.87l-0.683,2 H20c-0.552,0-1-0.448-1-1C19,25.448,19.448,25,20,25z M17.5,29h2.004l-1.024,3H17.5c-0.827,0-1.5-0.673-1.5-1.5 C16,29.673,16.673,29,17.5,29z M15,34h2.5h0.297l-1.366,4H15c-1.103,0-2-0.897-2-2C13,34.897,13.897,34,15,34z M13,40h2h0.748 l-1.366,4H14h-1c-1.103,0-2-0.897-2-2C11,40.897,11.897,40,13,40z M11,46h2h0.699l-1.366,4H11c-1.103,0-2-0.897-2-2 C9,46.897,9.897,46,11,46z M8,54c0-1.103,0.897-2,2-2h1h0.651l-1.366,4H10C8.897,56,8,55.103,8,54z M55.882,40.344L54.597,44H47v2 h6.894l-0.475,1.353C53.282,47.739,52.932,48,52.546,48H51H36c-1.654,0-3,1.346-3,3v5H12.398l13.156-38.528 c1.362,0.969,3.797,3.397,4.454,8.651l0.069,0.559l22.856,10.22l1.897,0.904C55.775,38.22,56.236,39.334,55.882,40.344z"></path></svg>